<?xml version="1.0" standalone="no"?>
<!DOCTYPE svg PUBLIC "-//W3C//DTD SVG 20010904//EN"
 "http://www.w3.org/TR/2001/REC-SVG-20010904/DTD/svg10.dtd">
<svg version="1.0" xmlns="http://www.w3.org/2000/svg"
 width="800.000000pt" height="800.000000pt" viewBox="0 0 800.000000 800.000000"
 preserveAspectRatio="xMidYMid meet">
<metadata>
Created by potrace 1.14, written by Peter Selinger 2001-2017
</metadata>
<g transform="translate(0.000000,800.000000) scale(0.100000,-0.100000)"
fill="#000000" stroke="none">
<path d="M4920 7828 c-269 -58 -486 -256 -570 -519 -99 -307 16 -659 275 -844
316 -225 725 -195 996 75 294 293 299 774 10 1069 -77 79 -133 119 -234 167
-140 66 -320 86 -477 52z"/>
<path d="M4112 6890 c-452 -236 -958 -598 -1381 -990 -519 -479 -938 -992
-1308 -1600 -105 -172 -309 -548 -301 -555 2 -2 43 -23 91 -48 l88 -45 53 107
c30 58 79 150 110 205 31 54 56 100 56 102 0 5 154 254 225 364 320 493 794
1038 1239 1425 38 33 74 65 80 70 6 6 58 49 116 95 58 47 107 87 110 90 3 3
57 44 120 92 259 194 581 398 804 511 67 33 122 62 124 63 7 4 -74 184 -83
184 -5 0 -70 -32 -143 -70z"/>
<path d="M4439 6428 c-126 -216 -420 -633 -619 -878 -92 -113 -248 -299 -281
-335 -19 -22 -78 -87 -130 -145 -114 -128 -486 -501 -629 -632 -348 -317 -725
-617 -1081 -858 l-156 -105 53 -83 c30 -45 58 -82 62 -82 5 0 85 52 178 116
931 642 1750 1442 2428 2371 139 191 404 599 394 608 -2 1 -42 23 -90 49 l-87
47 -42 -73z"/>
<path d="M5420 6323 c-47 -19 -87 -37 -89 -39 -2 -2 29 -88 69 -191 84 -219
221 -627 279 -828 34 -120 126 -476 136 -526 2 -9 13 -59 24 -110 11 -52 23
-110 26 -129 3 -19 14 -82 25 -140 40 -225 68 -427 85 -615 4 -38 8 -80 10
-91 11 -71 20 -350 20 -609 0 -351 -7 -457 -51 -800 -15 -118 -38 -235 -80
-398 -15 -62 -23 -111 -18 -116 16 -14 174 -65 180 -58 11 11 71 257 93 379
18 104 35 216 46 313 2 22 7 58 9 80 5 38 8 72 22 270 6 88 6 626 0 690 -2 22
-7 90 -10 150 -4 61 -9 126 -11 145 -2 19 -6 62 -10 95 -7 78 -17 166 -20 185
-2 8 -6 40 -10 70 -60 481 -207 1106 -390 1655 -93 280 -236 657 -248 654 -1
0 -40 -16 -87 -36z"/>
<path d="M4860 6287 c0 -2 -6 -42 -14 -88 -16 -92 -33 -213 -41 -299 -3 -30
-8 -68 -10 -85 -2 -16 -7 -66 -10 -110 -4 -44 -10 -125 -15 -180 -8 -103 -6
-924 3 -960 2 -11 8 -72 11 -135 4 -63 9 -122 11 -130 2 -8 6 -46 10 -85 14
-161 64 -540 90 -680 3 -16 13 -68 21 -115 87 -493 241 -1096 397 -1555 30
-88 61 -177 70 -197 l16 -37 88 35 c48 20 89 37 91 39 2 1 -30 103 -71 226
-141 422 -263 875 -337 1248 -5 25 -12 57 -15 71 -3 14 -12 63 -21 110 -9 47
-17 92 -19 100 -6 32 -55 337 -60 375 -3 22 -7 54 -10 70 -3 17 -7 53 -10 80
-3 28 -7 66 -10 85 -9 62 -25 223 -30 310 -3 47 -8 98 -11 115 -24 153 -24
930 1 1175 25 251 26 256 54 445 11 72 17 133 13 136 -4 4 -38 12 -77 18 -38
7 -80 15 -92 18 -13 3 -23 3 -23 0z"/>
<path d="M855 3663 c-66 -8 -190 -45 -248 -75 -87 -43 -143 -83 -209 -148
-299 -298 -296 -788 6 -1084 384 -376 1023 -253 1239 240 57 130 77 322 48
459 -61 284 -281 515 -559 586 -72 18 -211 29 -277 22z"/>
<path d="M1780 2838 c0 -7 -6 -52 -14 -100 -7 -49 -9 -89 -4 -89 4 -1 11 -2
16 -3 4 -1 27 -6 52 -10 62 -11 316 -71 430 -102 667 -183 1297 -449 1870
-790 206 -123 578 -381 685 -476 16 -14 53 -44 81 -67 l51 -40 62 74 c35 41
61 79 59 84 -5 13 -156 135 -298 241 -195 145 -480 332 -665 435 -311 174
-526 279 -843 411 -421 175 -937 336 -1346 420 -138 28 -136 28 -136 12z"/>
<path d="M1449 2250 l-74 -70 90 -86 c366 -350 944 -717 1490 -947 495 -209
1085 -359 1575 -402 41 -4 89 -8 106 -10 17 -2 92 -7 167 -10 l136 -7 3 97 c2
53 0 99 -3 101 -7 4 -79 10 -249 20 -63 3 -117 7 -120 9 -3 2 -40 6 -83 10
-43 3 -86 8 -95 10 -26 4 -93 15 -137 20 -199 27 -581 121 -835 205 -677 223
-1363 622 -1821 1057 l-76 73 -74 -70z"/>
<path d="M5634 1665 c-96 -17 -135 -30 -225 -77 -193 -99 -335 -276 -391 -488
-28 -105 -28 -278 0 -381 41 -152 133 -298 249 -394 81 -67 221 -138 318 -160
346 -80 700 86 860 405 130 258 100 571 -78 805 -168 222 -459 337 -733 290z"/>
</g>
</svg>
